<mxfile host="app.diagrams.net" modified="2024-06-25T18:04:59.286Z" agent="Mozilla/5.0 (Macintosh; Intel Mac OS X 10_15_7) AppleWebKit/537.36 (KHTML, like Gecko) Chrome/126.0.0.0 Safari/537.36" etag="gB9dD8tAAvkDOtG3Mr9-" version="24.6.3" type="github">
  <diagram name="Page-1" id="e4BV7F-Q5gpFSZ0rLdBw">
    <mxGraphModel dx="1140" dy="724" grid="1" gridSize="10" guides="1" tooltips="1" connect="1" arrows="1" fold="1" page="1" pageScale="1" pageWidth="850" pageHeight="1100" math="0" shadow="0">
      <root>
        <mxCell id="0" />
        <mxCell id="1" parent="0" />
        <mxCell id="-2wpNqQqefDHXb3G9lqg-19" value="" style="rounded=1;whiteSpace=wrap;html=1;strokeColor=default;dashed=1;" vertex="1" parent="1">
          <mxGeometry x="250" y="212.5" width="820" height="267.5" as="geometry" />
        </mxCell>
        <mxCell id="-2wpNqQqefDHXb3G9lqg-58" style="edgeStyle=orthogonalEdgeStyle;rounded=0;orthogonalLoop=1;jettySize=auto;html=1;exitX=0.5;exitY=0;exitDx=0;exitDy=0;exitPerimeter=0;entryX=0.5;entryY=1;entryDx=0;entryDy=0;entryPerimeter=0;" edge="1" parent="1" source="-2wpNqQqefDHXb3G9lqg-1" target="-2wpNqQqefDHXb3G9lqg-15">
          <mxGeometry relative="1" as="geometry">
            <mxPoint x="125" y="330" as="targetPoint" />
          </mxGeometry>
        </mxCell>
        <mxCell id="-2wpNqQqefDHXb3G9lqg-63" value="&lt;span style=&quot;font-size: 12px; text-wrap: wrap; background-color: rgb(251, 251, 251);&quot;&gt;kubectl apply -f config/samples/blog_v1_ghost.yaml&lt;/span&gt;" style="edgeLabel;html=1;align=center;verticalAlign=middle;resizable=0;points=[];" vertex="1" connectable="0" parent="-2wpNqQqefDHXb3G9lqg-58">
          <mxGeometry x="-0.1148" y="-1" relative="1" as="geometry">
            <mxPoint x="1" as="offset" />
          </mxGeometry>
        </mxCell>
        <mxCell id="-2wpNqQqefDHXb3G9lqg-1" value="" style="aspect=fixed;sketch=0;html=1;dashed=0;whitespace=wrap;verticalLabelPosition=bottom;verticalAlign=top;fillColor=#2875E2;strokeColor=#ffffff;points=[[0.005,0.63,0],[0.1,0.2,0],[0.9,0.2,0],[0.5,0,0],[0.995,0.63,0],[0.72,0.99,0],[0.5,1,0],[0.28,0.99,0]];shape=mxgraph.kubernetes.icon2;kubernetesLabel=1;prIcon=user" vertex="1" parent="1">
          <mxGeometry x="100" y="400" width="50" height="48" as="geometry" />
        </mxCell>
        <mxCell id="-2wpNqQqefDHXb3G9lqg-2" value="" style="aspect=fixed;sketch=0;html=1;dashed=0;whitespace=wrap;verticalLabelPosition=bottom;verticalAlign=top;fillColor=#2875E2;strokeColor=#ffffff;points=[[0.005,0.63,0],[0.1,0.2,0],[0.9,0.2,0],[0.5,0,0],[0.995,0.63,0],[0.72,0.99,0],[0.5,1,0],[0.28,0.99,0]];shape=mxgraph.kubernetes.icon2;kubernetesLabel=1;prIcon=api" vertex="1" parent="1">
          <mxGeometry x="300" y="230" width="50" height="48" as="geometry" />
        </mxCell>
        <mxCell id="-2wpNqQqefDHXb3G9lqg-10" value="" style="aspect=fixed;sketch=0;html=1;dashed=0;whitespace=wrap;verticalLabelPosition=bottom;verticalAlign=top;fillColor=#2875E2;strokeColor=#ffffff;points=[[0.005,0.63,0],[0.1,0.2,0],[0.9,0.2,0],[0.5,0,0],[0.995,0.63,0],[0.72,0.99,0],[0.5,1,0],[0.28,0.99,0]];shape=mxgraph.kubernetes.icon2;prIcon=c_role" vertex="1" parent="1">
          <mxGeometry x="400" y="230" width="50" height="48" as="geometry" />
        </mxCell>
        <mxCell id="-2wpNqQqefDHXb3G9lqg-11" value="&lt;div&gt;API&lt;/div&gt;" style="text;strokeColor=none;align=center;fillColor=none;html=1;verticalAlign=middle;whiteSpace=wrap;rounded=0;" vertex="1" parent="1">
          <mxGeometry x="307.5" y="290" width="35" height="30" as="geometry" />
        </mxCell>
        <mxCell id="-2wpNqQqefDHXb3G9lqg-14" value="&lt;div&gt;Auth&lt;/div&gt;" style="text;strokeColor=none;align=center;fillColor=none;html=1;verticalAlign=middle;whiteSpace=wrap;rounded=0;" vertex="1" parent="1">
          <mxGeometry x="408" y="290" width="35" height="30" as="geometry" />
        </mxCell>
        <mxCell id="-2wpNqQqefDHXb3G9lqg-15" value="" style="aspect=fixed;sketch=0;html=1;dashed=0;whitespace=wrap;verticalLabelPosition=bottom;verticalAlign=top;fillColor=#2875E2;strokeColor=#ffffff;points=[[0.005,0.63,0],[0.1,0.2,0],[0.9,0.2,0],[0.5,0,0],[0.995,0.63,0],[0.72,0.99,0],[0.5,1,0],[0.28,0.99,0]];shape=mxgraph.kubernetes.icon2;prIcon=crd" vertex="1" parent="1">
          <mxGeometry x="100" y="230" width="50" height="48" as="geometry" />
        </mxCell>
        <mxCell id="-2wpNqQqefDHXb3G9lqg-16" value="" style="aspect=fixed;sketch=0;html=1;dashed=0;whitespace=wrap;verticalLabelPosition=bottom;verticalAlign=top;fillColor=#2875E2;strokeColor=#ffffff;points=[[0.005,0.63,0],[0.1,0.2,0],[0.9,0.2,0],[0.5,0,0],[0.995,0.63,0],[0.72,0.99,0],[0.5,1,0],[0.28,0.99,0]];shape=mxgraph.kubernetes.icon2;kubernetesLabel=1;prIcon=control_plane" vertex="1" parent="1">
          <mxGeometry x="500" y="230" width="50" height="48" as="geometry" />
        </mxCell>
        <mxCell id="-2wpNqQqefDHXb3G9lqg-17" value="Dynamic Admission Controller" style="text;strokeColor=none;align=center;fillColor=none;html=1;verticalAlign=middle;whiteSpace=wrap;rounded=0;" vertex="1" parent="1">
          <mxGeometry x="507.5" y="290" width="35" height="30" as="geometry" />
        </mxCell>
        <mxCell id="-2wpNqQqefDHXb3G9lqg-22" value="" style="aspect=fixed;sketch=0;html=1;dashed=0;whitespace=wrap;verticalLabelPosition=bottom;verticalAlign=top;fillColor=#2875E2;strokeColor=#ffffff;points=[[0.005,0.63,0],[0.1,0.2,0],[0.9,0.2,0],[0.5,0,0],[0.995,0.63,0],[0.72,0.99,0],[0.5,1,0],[0.28,0.99,0]];shape=mxgraph.kubernetes.icon2;kubernetesLabel=1;prIcon=control_plane" vertex="1" parent="1">
          <mxGeometry x="607.5" y="230" width="50" height="48" as="geometry" />
        </mxCell>
        <mxCell id="-2wpNqQqefDHXb3G9lqg-37" style="edgeStyle=orthogonalEdgeStyle;rounded=0;orthogonalLoop=1;jettySize=auto;html=1;exitX=0.75;exitY=0;exitDx=0;exitDy=0;entryX=0.75;entryY=1;entryDx=0;entryDy=0;" edge="1" parent="1" source="-2wpNqQqefDHXb3G9lqg-24" target="-2wpNqQqefDHXb3G9lqg-34">
          <mxGeometry relative="1" as="geometry" />
        </mxCell>
        <mxCell id="-2wpNqQqefDHXb3G9lqg-24" value="Mutating / Defaulting Logic" style="rounded=1;whiteSpace=wrap;html=1;" vertex="1" parent="1">
          <mxGeometry x="578.75" y="400" width="107.5" height="48" as="geometry" />
        </mxCell>
        <mxCell id="-2wpNqQqefDHXb3G9lqg-36" style="edgeStyle=orthogonalEdgeStyle;rounded=0;orthogonalLoop=1;jettySize=auto;html=1;exitX=0.25;exitY=1;exitDx=0;exitDy=0;entryX=0.25;entryY=0;entryDx=0;entryDy=0;" edge="1" parent="1" source="-2wpNqQqefDHXb3G9lqg-34" target="-2wpNqQqefDHXb3G9lqg-24">
          <mxGeometry relative="1" as="geometry" />
        </mxCell>
        <mxCell id="-2wpNqQqefDHXb3G9lqg-34" value="Mutating Webhook" style="rounded=1;whiteSpace=wrap;html=1;" vertex="1" parent="1">
          <mxGeometry x="578.75" y="281" width="107.5" height="48" as="geometry" />
        </mxCell>
        <mxCell id="-2wpNqQqefDHXb3G9lqg-39" value="" style="aspect=fixed;sketch=0;html=1;dashed=0;whitespace=wrap;verticalLabelPosition=bottom;verticalAlign=top;fillColor=#2875E2;strokeColor=#ffffff;points=[[0.005,0.63,0],[0.1,0.2,0],[0.9,0.2,0],[0.5,0,0],[0.995,0.63,0],[0.72,0.99,0],[0.5,1,0],[0.28,0.99,0]];shape=mxgraph.kubernetes.icon2;kubernetesLabel=1;prIcon=control_plane" vertex="1" parent="1">
          <mxGeometry x="798.75" y="230" width="50" height="48" as="geometry" />
        </mxCell>
        <mxCell id="-2wpNqQqefDHXb3G9lqg-40" style="edgeStyle=orthogonalEdgeStyle;rounded=0;orthogonalLoop=1;jettySize=auto;html=1;exitX=0.75;exitY=0;exitDx=0;exitDy=0;entryX=0.75;entryY=1;entryDx=0;entryDy=0;" edge="1" parent="1" source="-2wpNqQqefDHXb3G9lqg-41" target="-2wpNqQqefDHXb3G9lqg-43">
          <mxGeometry relative="1" as="geometry" />
        </mxCell>
        <mxCell id="-2wpNqQqefDHXb3G9lqg-41" value="Validating Logic" style="rounded=1;whiteSpace=wrap;html=1;" vertex="1" parent="1">
          <mxGeometry x="770" y="400" width="107.5" height="48" as="geometry" />
        </mxCell>
        <mxCell id="-2wpNqQqefDHXb3G9lqg-42" style="edgeStyle=orthogonalEdgeStyle;rounded=0;orthogonalLoop=1;jettySize=auto;html=1;exitX=0.25;exitY=1;exitDx=0;exitDy=0;entryX=0.25;entryY=0;entryDx=0;entryDy=0;" edge="1" parent="1" source="-2wpNqQqefDHXb3G9lqg-43" target="-2wpNqQqefDHXb3G9lqg-41">
          <mxGeometry relative="1" as="geometry" />
        </mxCell>
        <mxCell id="-2wpNqQqefDHXb3G9lqg-43" value="Validating Webhook" style="rounded=1;whiteSpace=wrap;html=1;" vertex="1" parent="1">
          <mxGeometry x="770" y="281" width="107.5" height="48" as="geometry" />
        </mxCell>
        <mxCell id="-2wpNqQqefDHXb3G9lqg-47" value="admission review&amp;nbsp;&lt;br&gt;request" style="text;strokeColor=none;align=center;fillColor=none;html=1;verticalAlign=middle;whiteSpace=wrap;rounded=0;" vertex="1" parent="1">
          <mxGeometry x="542.5" y="350" width="60" height="30" as="geometry" />
        </mxCell>
        <mxCell id="-2wpNqQqefDHXb3G9lqg-48" value="admission review&amp;nbsp;&lt;br&gt;response" style="text;strokeColor=none;align=center;fillColor=none;html=1;verticalAlign=middle;whiteSpace=wrap;rounded=0;" vertex="1" parent="1">
          <mxGeometry x="670" y="350" width="60" height="30" as="geometry" />
        </mxCell>
        <mxCell id="-2wpNqQqefDHXb3G9lqg-49" value="admission review&amp;nbsp;&lt;br&gt;request" style="text;strokeColor=none;align=center;fillColor=none;html=1;verticalAlign=middle;whiteSpace=wrap;rounded=0;" vertex="1" parent="1">
          <mxGeometry x="730" y="350" width="60" height="30" as="geometry" />
        </mxCell>
        <mxCell id="-2wpNqQqefDHXb3G9lqg-50" value="admission review&amp;nbsp;&lt;br&gt;response" style="text;strokeColor=none;align=center;fillColor=none;html=1;verticalAlign=middle;whiteSpace=wrap;rounded=0;" vertex="1" parent="1">
          <mxGeometry x="857.5" y="350" width="60" height="30" as="geometry" />
        </mxCell>
        <mxCell id="-2wpNqQqefDHXb3G9lqg-51" value="" style="aspect=fixed;sketch=0;html=1;dashed=0;whitespace=wrap;verticalLabelPosition=bottom;verticalAlign=top;fillColor=#2875E2;strokeColor=#ffffff;points=[[0.005,0.63,0],[0.1,0.2,0],[0.9,0.2,0],[0.5,0,0],[0.995,0.63,0],[0.72,0.99,0],[0.5,1,0],[0.28,0.99,0]];shape=mxgraph.kubernetes.icon2;kubernetesLabel=1;prIcon=etcd" vertex="1" parent="1">
          <mxGeometry x="950" y="230" width="50" height="48" as="geometry" />
        </mxCell>
        <mxCell id="-2wpNqQqefDHXb3G9lqg-53" style="edgeStyle=orthogonalEdgeStyle;rounded=0;orthogonalLoop=1;jettySize=auto;html=1;exitX=0.995;exitY=0.63;exitDx=0;exitDy=0;exitPerimeter=0;entryX=0.005;entryY=0.63;entryDx=0;entryDy=0;entryPerimeter=0;" edge="1" parent="1" source="-2wpNqQqefDHXb3G9lqg-2" target="-2wpNqQqefDHXb3G9lqg-10">
          <mxGeometry relative="1" as="geometry" />
        </mxCell>
        <mxCell id="-2wpNqQqefDHXb3G9lqg-54" style="edgeStyle=orthogonalEdgeStyle;rounded=0;orthogonalLoop=1;jettySize=auto;html=1;exitX=0.995;exitY=0.63;exitDx=0;exitDy=0;exitPerimeter=0;entryX=0.005;entryY=0.63;entryDx=0;entryDy=0;entryPerimeter=0;" edge="1" parent="1" source="-2wpNqQqefDHXb3G9lqg-10" target="-2wpNqQqefDHXb3G9lqg-16">
          <mxGeometry relative="1" as="geometry" />
        </mxCell>
        <mxCell id="-2wpNqQqefDHXb3G9lqg-55" style="edgeStyle=orthogonalEdgeStyle;rounded=0;orthogonalLoop=1;jettySize=auto;html=1;exitX=0.995;exitY=0.63;exitDx=0;exitDy=0;exitPerimeter=0;entryX=0.005;entryY=0.63;entryDx=0;entryDy=0;entryPerimeter=0;" edge="1" parent="1" source="-2wpNqQqefDHXb3G9lqg-16" target="-2wpNqQqefDHXb3G9lqg-22">
          <mxGeometry relative="1" as="geometry" />
        </mxCell>
        <mxCell id="-2wpNqQqefDHXb3G9lqg-56" style="edgeStyle=orthogonalEdgeStyle;rounded=0;orthogonalLoop=1;jettySize=auto;html=1;exitX=0.995;exitY=0.63;exitDx=0;exitDy=0;exitPerimeter=0;entryX=0.005;entryY=0.63;entryDx=0;entryDy=0;entryPerimeter=0;" edge="1" parent="1" source="-2wpNqQqefDHXb3G9lqg-22" target="-2wpNqQqefDHXb3G9lqg-39">
          <mxGeometry relative="1" as="geometry" />
        </mxCell>
        <mxCell id="-2wpNqQqefDHXb3G9lqg-57" style="edgeStyle=orthogonalEdgeStyle;rounded=0;orthogonalLoop=1;jettySize=auto;html=1;exitX=0.995;exitY=0.63;exitDx=0;exitDy=0;exitPerimeter=0;entryX=0.005;entryY=0.63;entryDx=0;entryDy=0;entryPerimeter=0;" edge="1" parent="1" source="-2wpNqQqefDHXb3G9lqg-39" target="-2wpNqQqefDHXb3G9lqg-51">
          <mxGeometry relative="1" as="geometry" />
        </mxCell>
        <mxCell id="-2wpNqQqefDHXb3G9lqg-62" style="edgeStyle=orthogonalEdgeStyle;rounded=0;orthogonalLoop=1;jettySize=auto;html=1;exitX=0.995;exitY=0.63;exitDx=0;exitDy=0;exitPerimeter=0;entryX=0.005;entryY=0.63;entryDx=0;entryDy=0;entryPerimeter=0;" edge="1" parent="1" source="-2wpNqQqefDHXb3G9lqg-15" target="-2wpNqQqefDHXb3G9lqg-2">
          <mxGeometry relative="1" as="geometry" />
        </mxCell>
      </root>
    </mxGraphModel>
  </diagram>
</mxfile>
